<?xml version="1.0" encoding="UTF-8"?>
<svg version="1.1" xmlns="http://www.w3.org/2000/svg" width="1074" height="1025">
<path d="M0 0 C4.85483753 0.39050828 7.74405529 1.93231319 11.87109375 4.37890625 C13.01759399 5.03850342 13.01759399 5.03850342 14.18725586 5.71142578 C46.30327317 24.39072686 77.27829745 45.82590183 104.5703125 71.13671875 C106.59118697 73.00059966 108.64819135 74.79091832 110.74609375 76.56640625 C114.73600809 80.07117377 118.60476304 83.69978497 122.43359375 87.37890625 C123.07014893 87.96897461 123.7067041 88.55904297 124.36254883 89.16699219 C127.20499089 91.94158166 128.76686172 93.51826299 129.59375 97.4765625 C128.76966753 101.02157998 127.56449624 102.27229016 124.87109375 104.69140625 C121.24146643 108.00460453 118.00744275 111.47075031 114.80102539 115.18408203 C111.69120514 118.73502596 108.43258948 122.14322287 105.18359375 125.56640625 C96.91622183 134.31565113 88.69350585 143.09343075 80.80859375 152.19140625 C78.38808936 154.93464456 75.9113996 157.62507539 73.43359375 160.31640625 C66.70591677 167.6320919 60.22042405 175.13759468 53.76025391 182.6887207 C49.98257666 187.10184598 46.18103199 191.49362657 42.37109375 195.87890625 C34.13555525 205.3746873 25.97353653 214.88642333 18.26245117 224.81591797 C15.20850215 228.73530438 12.07295226 232.57460431 8.88745117 236.38769531 C0.80937505 246.06575527 -6.70323809 256.08728297 -14.06640625 266.31640625 C-14.60571777 267.05955078 -15.1450293 267.80269531 -15.70068359 268.56835938 C-33.28542824 290.72716551 -33.28542824 290.72716551 -42.06640625 316.31640625 C-41.02419922 316.46335937 -41.02419922 316.46335937 -39.9609375 316.61328125 C-37.03815415 317.04299338 -34.12108472 317.50121349 -31.20507812 317.97460938 C-29.76231163 318.2051885 -28.31823023 318.42766662 -26.87304688 318.64257812 C8.73990398 324.01639935 42.19729387 339.36899265 71.93359375 359.31640625 C72.60406738 359.76467773 73.27454102 360.21294922 73.96533203 360.67480469 C82.19270394 366.2326458 89.84771135 372.37002669 97.31860352 378.90600586 C98.45687027 379.90007495 99.60117702 380.88724873 100.74975586 381.86938477 C114.46024562 393.67092745 127.37015744 406.60619958 137.93359375 421.31640625 C138.41731445 421.97705078 138.90103516 422.63769531 139.39941406 423.31835938 C146.0663183 432.42993591 152.32299434 441.7138064 157.91308594 451.52636719 C158.8885419 453.23738229 159.88328206 454.93736019 160.87890625 456.63671875 C184.68736629 498.95215987 193.64700008 547.94935016 193.30859375 596.00390625 C193.30211319 597.76432251 193.30211319 597.76432251 193.29550171 599.56030273 C193.21630828 617.97566566 192.57849483 636.06812358 189.93359375 654.31640625 C189.75666992 655.56131836 189.57974609 656.80623047 189.39746094 658.08886719 C182.1128631 708.0242192 166.94818878 757.37766595 139.93359375 800.31640625 C139.30324219 801.32058594 138.67289063 802.32476563 138.0234375 803.359375 C129.95839085 815.77372494 121.27838746 828.24542317 111.09375 839.015625 C109.23829423 840.99186994 107.46518929 843.00647163 105.6953125 845.05859375 C96.09135835 856.07274876 85.54225676 866.43827553 73.93359375 875.31640625 C72.67225924 876.31655189 71.41191916 877.31795237 70.15234375 878.3203125 C56.1823885 889.3409817 41.43975431 898.63002196 25.74609375 907.00390625 C24.79009277 907.52154541 23.8340918 908.03918457 22.84912109 908.57250977 C17.42545494 911.39711687 13.0582136 913.00693662 6.93359375 913.31640625 C7.47292488 908.24356709 9.25127908 904.31726022 11.62109375 899.87890625 C32.9345031 858.43457649 39.00991669 810.93799664 25.26171875 766.12646484 C13.88255292 730.90563108 -11.2413813 704.33691793 -43.73999023 687.43603516 C-63.03544755 677.6715429 -83.70257912 672.24355639 -105.06640625 669.31640625 C-106.36964844 669.11917969 -106.36964844 669.11917969 -107.69921875 668.91796875 C-153.87215773 662.96535989 -204.46721906 678.703874 -241.03515625 706.8515625 C-257.35425976 720.12134899 -269.74413103 734.99884272 -280.06640625 753.31640625 C-280.71351563 754.44304688 -281.360625 755.5696875 -282.02734375 756.73046875 C-293.69452854 778.42826489 -300.13058314 804.50018935 -300.26953125 829.12890625 C-300.27523132 829.94149902 -300.2809314 830.7540918 -300.2868042 831.59130859 C-300.29618463 833.30223316 -300.3027602 835.01317522 -300.30664062 836.72412109 C-300.31627877 839.28256604 -300.34734112 841.84018249 -300.37890625 844.3984375 C-300.44948035 855.36258138 -299.41067292 865.60763365 -297.06640625 876.31640625 C-296.78410156 877.60949707 -296.78410156 877.60949707 -296.49609375 878.92871094 C-291.35226415 900.51873008 -280.33807471 919.37492777 -265.06640625 935.31640625 C-264.39351562 936.05246094 -263.720625 936.78851562 -263.02734375 937.546875 C-252.25969922 948.93960751 -238.89759064 957.16318272 -225.06640625 964.31640625 C-224.46393066 964.63061523 -223.86145508 964.94482422 -223.24072266 965.26855469 C-199.04974356 977.70583722 -171.69703891 983.97811187 -144.62890625 984.87890625 C-143.42041016 984.92208984 -142.21191406 984.96527344 -140.96679688 985.00976562 C-138.00010019 985.11530029 -135.03332723 985.21741339 -132.06640625 985.31640625 C-131.73640625 986.63640625 -131.40640625 987.95640625 -131.06640625 989.31640625 C-180.23939366 1029.38328488 -283.80896003 1024.41116385 -343.609375 1024.51953125 C-345.23780555 1024.52377232 -345.23780555 1024.52377232 -346.89913368 1024.52809906 C-352.67030692 1024.54296695 -358.44145606 1024.55226848 -364.21264648 1024.55664062 C-368.8549812 1024.56097603 -373.49712489 1024.57469225 -378.1394043 1024.59765625 C-411.22437264 1024.75776453 -444.06884643 1023.76517836 -477.06640625 1021.31640625 C-478.16970087 1021.23473457 -478.16970087 1021.23473457 -479.29528427 1021.15141296 C-487.06484518 1020.56986358 -494.81706003 1019.87145791 -502.56640625 1019.06640625 C-503.58130127 1018.96380493 -504.59619629 1018.86120361 -505.6418457 1018.75549316 C-593.55856492 1009.83101045 -680.63368835 992.44159126 -765.06640625 966.31640625 C-765.84187805 966.07704346 -766.61734985 965.83768066 -767.4163208 965.59106445 C-798.99767624 955.82341359 -830.24056967 944.86335306 -860.75390625 932.12890625 C-861.40043152 931.86054962 -862.04695679 931.59219299 -862.71307373 931.31570435 C-877.04253923 925.34027327 -877.04253923 925.34027327 -881.06640625 921.31640625 C-882.25624841 913.92003448 -879.94855916 909.39150388 -875.81640625 903.44140625 C-874.70649149 901.76728481 -873.59713187 900.09279521 -872.48828125 898.41796875 C-871.91787109 897.57137695 -871.34746094 896.72478516 -870.75976562 895.85253906 C-868.11468125 891.8910142 -865.59383604 887.85359319 -863.06640625 883.81640625 C-860.0823226 879.07150368 -857.08615021 874.33641415 -854.03125 869.63671875 C-817.60855712 813.37750451 -801.98989818 745.04912764 -788.06640625 680.31640625 C-787.87216064 679.41436462 -787.67791504 678.512323 -787.4777832 677.58294678 C-782.16270826 652.80109661 -777.73748376 627.87857234 -773.45611954 602.90201187 C-768.94076875 576.56503651 -764.24815045 550.32420001 -758.06640625 524.31640625 C-757.87645081 523.51571716 -757.68649536 522.71502808 -757.49078369 521.89007568 C-751.41036188 496.37586327 -744.15143146 471.2644647 -736.06640625 446.31640625 C-735.83608704 445.60482361 -735.60576782 444.89324097 -735.36846924 444.16009521 C-710.0032766 366.02601944 -675.22403431 291.3448358 -601.40625 219.1640625 C-599.1841506 217.40938301 -597.13489148 215.56029889 -595.06640625 213.62890625 C-577.78542067 198.13773704 -557.39388989 185.8906997 -537.24462891 174.54492188 C-535.89983533 173.78645951 -534.55775506 173.02313474 -533.22021484 172.25195312 C-491.218662 148.04481353 -441.18230607 134.8892632 -393.06640625 131.31640625 C-392.31842773 131.26000977 -391.57044922 131.20361328 -390.79980469 131.14550781 C-310.56761095 125.39763128 -227.7146841 144.01768687 -165.06640625 196.31640625 C-162.44266111 198.59760689 -159.85944449 200.91182206 -157.30078125 203.265625 C-155.21473739 205.18026316 -153.08958579 207.03463583 -150.94140625 208.87890625 C-129.0718456 227.97626907 -110.85262965 253.30416485 -98.06640625 279.31640625 C-96.74640625 279.31640625 -95.42640625 279.31640625 -94.06640625 279.31640625 C-93.81221924 278.47916016 -93.55803223 277.64191406 -93.29614258 276.77929688 C-91.94880547 272.98524694 -90.23630231 269.4770423 -88.390625 265.91015625 C-87.64364187 264.44539569 -86.89716252 262.98037813 -86.15112305 261.51513672 C-85.76016449 260.74989685 -85.36920593 259.98465698 -84.96640015 259.19622803 C-47.17637595 185.0238773 -21.49533784 103.68104156 -7.06640625 18.31640625 C-6.59523844 15.56260341 -6.12124732 12.80935048 -5.64233398 10.05688477 C-5.29094047 8.03002227 -4.94956557 6.00142912 -4.609375 3.97265625 C-3.84598249 0.23807416 -3.87573536 0.39991664 0 0 Z " fill="#19AE5D" transform="translate(881.06640625,-0.31640625)"/>
</svg>
